<svg xmlns="http://www.w3.org/2000/svg" fill="none" viewBox="0 0 24 24">
  <path fill-rule="evenodd" d="M15.5002 2.5H9.1667A3.6667 3.6667 0 005.5 6.1667v.5h.0342a3.6667 3.6667 0 001.784 2.6666A3.6667 3.6667 0 005.5 12.5v.5h.0342a3.667 3.667 0 001.784 2.6667A3.6668 3.6668 0 005.5 18.8333v.5h.0343A3.6669 3.6669 0 009.1667 22.5a3.667 3.667 0 002.5927-1.0739 3.667 3.667 0 001.0739-2.5928v-4.6258a3.1666 3.1666 0 103.9458-4.6044 3.6662 3.6662 0 002.3877-3.4364A3.6668 3.6668 0 0015.5002 2.5zm-2.6669 8.2924a3.1691 3.1691 0 01.959-.959h-.959v.959zm-3.6716-.959h2.6716v5.3332H9.1667a2.6666 2.6666 0 01-.005-5.3333zm2.6716-1V3.5H9.1667a2.6666 2.6666 0 00-.005 5.3333h2.6716zM12.8335 3.5h2.6667a2.6667 2.6667 0 010 5.3333h-2.6667V3.5zm1.1346 7.4679a2.1667 2.1667 0 103.0642 3.0642 2.1667 2.1667 0 00-3.0642-3.0642zm-4.8014 5.1988a2.6666 2.6666 0 102.6666 2.6666v-2.6666H9.1667z" clip-rule="evenodd"/>
</svg>
