<svg xmlns="http://www.w3.org/2000/svg" fill="none" viewBox="0 0 24 24">
  <path fill-rule="evenodd" d="M17.154 5.904c-3.167-2.787-8.203-2.47-11.06.66A7.69 7.69 0 004.4 9.637h.002l-.062.043a5.482 5.482 0 00-2.044 2.684 5.297 5.297 0 00-.05 3.335 5.467 5.467 0 001.96 2.742 5.763 5.763 0 003.41 1.114h8.692a5.763 5.763 0 003.375-1.043 5.46 5.46 0 002.063-2.786c.36-1.119.338-2.32-.063-3.427a5.478 5.478 0 00-2.166-2.712 7.546 7.546 0 00-2.36-3.683h-.002zM6.724 16.003c.279.124.583.188.89.188H16.309c.572 0 1.121-.22 1.526-.613.405-.391.633-.923.633-1.477s-.228-1.086-.633-1.477a2.197 2.197 0 00-1.527-.612v-.419a4.08 4.08 0 00-.4-1.841 4.216 4.216 0 00-1.19-1.486h-.003a4.456 4.456 0 00-3.07-.907 4.411 4.411 0 00-2.877 1.374l-.018.017c.475.093.938.245 1.377.454a5.607 5.607 0 011.991 1.582l-2.52 2.438a2.114 2.114 0 00-.641-.79 2.207 2.207 0 00-.947-.412 2.243 2.243 0 00-1.037.06c-.336.102-.64.28-.889.52a2.09 2.09 0 00-.538.86 2.036 2.036 0 00-.063 1.004c.063.334.21.649.426.917.216.267.496.48.816.62z" clip-rule="evenodd"/>
</svg>