<svg xmlns="http://www.w3.org/2000/svg" fill="none" viewBox="0 0 24 24">
  <path d="M21.6238 11.1094l-8.7325-8.732a1.2884 1.2884 0 00-1.404-.2793 1.288 1.288 0 00-.4179.2794L9.2562 4.191l2.3004 2.3A1.53 1.53 0 0113.5398 7.6a1.5307 1.5307 0 01-.0463.8413l2.2172 2.2168a1.5315 1.5315 0 012.0147 1.656 1.5314 1.5314 0 11-2.9328-.7915L12.725 9.4548v5.4409a1.5306 1.5306 0 01.2392 2.596 1.5304 1.5304 0 01-2.4257-.9553 1.531 1.531 0 01.9265-1.6855V9.3593a1.5318 1.5318 0 01-.8346-.8317 1.534 1.534 0 01-.1165-.5894 1.5345 1.5345 0 01.1191-.5889L8.3654 5.0817 2.377 11.0689a1.2892 1.2892 0 000 1.8219l8.7329 8.7319a1.2889 1.2889 0 001.4039.2792 1.2878 1.2878 0 00.418-.2792l8.692-8.6911a1.2878 1.2878 0 00.3773-.9109 1.289 1.289 0 00-.3773-.9113z"/>
</svg>
