<svg xmlns="http://www.w3.org/2000/svg" fill="none" viewBox="0 0 24 24">
  <path d="M6.3184 2h.9015v.8912h.8244V2h.9016v2.6973h-.9016v-.903h-.8244v.903h-.9015V2zM10.1311 2.8947h-.7934V2h2.4888v.8947h-.7939v1.8026h-.9015V2.8947zM13.1616 2h-.9399v2.6973h.8819V3.3607l.6208.9586h.0153l.6204-.9586v1.3366h.8976V2h-.9404l-.5776.9478L13.1616 2zM15.7061 2h.9015v1.8056h1.2683v.8917h-2.1698V2z"/>
  <path fill-rule="evenodd" d="M6.2894 20.3935L5 5.9307h14.1693L17.878 20.3911 12.0758 22l-5.7864-1.6065zm1.347-11.5202l.0428.5943.436 5.0058h6.1473l-.1195 2.189-1.8925.4183v.0025l-.0875.002-2.019-.4656-.169-1.3464H8.1943l.2488 2.7179 3.7163.9748.091-.0181v-.0094l3.5477-1.0107-.0152-.3018.3962-4.673.0226-.4793H9.7375l-.1622-1.6001h6.7877l.0354-.5048.0811-.9591.0423-.5363H7.6365z" clip-rule="evenodd"/>
</svg>
