<svg xmlns="http://www.w3.org/2000/svg" fill="none" viewBox="0 0 24 24">
  <path fill-rule="evenodd" d="M14.3507 3.2832l-.6716-.1492-.7985-.0967L11.9328 3l-.6268.015-.5746.0298-.5299.0448-.4776.0746-.4328.0893-.3806.112-.3284.1343-.2837.1492-.2313.1717-.1865.194-.127.209-.082.2312-.0373.2537.0149.2761.0075 2.0522h4.3581v.6193H5.9254l-.0448-.0075h-.1194l-.1791.0075-.2388.0373-.2687.0746-.2985.1194-.3134.1791-.3135.2463-.2985.3283-.2686.4257-.2388.5298-.1791.6493-.1194.776L3 11.9325l.0373.9179.1045.7836.1567.6569.209.5448.2388.4402.2612.3433.2686.2687.2687.194.2612.1343.2388.0894.209.0522.1566.0224h1.6642v-2.2836l.015-.1567.0298-.2015.0522-.2387.0746-.2613.112-.2761.1492-.2686.2015-.2612.2463-.2388.306-.2015.373-.1642.4404-.1045.515-.0373h4.4552l.1567-.0149.194-.0298.2239-.0523.2463-.0746.2611-.1045.2612-.1419.2463-.1865.2238-.2312.1941-.2838.1567-.3433.097-.4105.0373-.47v-3.985l.0075-.097-.0149-.1494-.0299-.194-.0746-.2239-.1194-.2462-.1866-.2537-.2537-.2538-.3358-.2388-.4403-.2239-.5448-.194zM8.806 4.8578l.1716-.2463.2463-.1641.306-.0672.306.0672.2462.1641.1717.2463.0597.306-.0597.306-.1717.2537-.2463.1641-.306.0672-.3059-.0672-.2463-.1641-.1716-.2537-.0597-.306.0597-.306z" clip-rule="evenodd"/>
  <path fill-rule="evenodd" d="M18.9551 7.604l-.2089-.0448-.1568-.0227-.1045-.0075h-1.5597v2.2835l-.0149.1568-.0298.2089-.0523.2388-.0746.2612-.1119.2687-.1493.2687-.2015.2611-.2462.2388-.306.209-.3731.1567-.4403.1045-.515.0373h-4.3582l-.097.0075-.1567.0149-.194.0299-.2239.0447-.2462.0746-.2613.1045-.2611.1493-.2463.179-.2239.2388-.194.2838-.1567.3433-.097.403-.0374.4776v3.985l-.0074.097.0149.1493.0298.1865.0747.224.1194.2462.1866.2537.2537.2537.3358.2463.4403.2239.5448.1866.6716.1492.7985.1045.9477.0298.6269-.0074.5746-.0299.5299-.0522.4776-.0672.4328-.097.3806-.1119.3283-.1269.2838-.1492.2313-.1792.1866-.1865.1268-.2164.0821-.2312.0373-.2538-.0149-.2686-.0075-2.0597h-4.3581v-.6119h6.1342l.1194.0074.1791-.0149.2388-.0373.2687-.0672.2985-.1194.3134-.1791.3135-.2463.2984-.3358.2687-.4253.2388-.5299.1791-.6417.1194-.7762.0448-.9179-.0373-.9178-.1045-.7762-.1567-.6569-.209-.5447-.2388-.4403-.2612-.3507-.2686-.2612-.2687-.2015-.2612-.1343-.2388-.0894zm-5.2088 10.8358l.1716-.2463.2462-.1716.306-.0598.3059.0598.2464.1716.1716.2463.0597.3059-.0597.306-.1716.2463-.2464.1716-.3059.0597-.306-.0597-.2462-.1716-.1716-.2463-.0597-.306.0597-.3059z" clip-rule="evenodd"/>
</svg>
