<svg xmlns="http://www.w3.org/2000/svg" fill="none" viewBox="0 0 24 24">
  <path d="M3 21h18V3H3v18zm14.5057-9.7172c.4311.1003.8228.326 1.1257.6486.1668.1741.3117.3679.4315.5772.0056.0228-.7772.5486-1.2514.8428-.0169.0113-.0857-.0628-.1631-.1771a1.0202 1.0202 0 00-.8458-.5086c-.5455-.0371-.8971.2486-.8942.7256a.6604.6604 0 00.0772.3374c.1199.2485.343.3971 1.0428.7 1.2886.5543 1.84.92 2.1829 1.4398.1926.3284.311.695.347 1.0741a2.6104 2.6104 0 01-.1385 1.1202 2.4131 2.4131 0 01-1.9914 1.4257 5.5161 5.5161 0 01-1.3714-.0143 3.308 3.308 0 01-1.8315-.9543 3.1788 3.1788 0 01-.4685-.6943 1.359 1.359 0 01.1657-.1057c.08-.0457.3829-.22.6686-.3857l.5171-.3.1085.16c.1824.2609.4145.4833.683.6543a1.6717 1.6717 0 001.7514-.0886.7827.7827 0 00.1-.9971c-.1401-.2-.4257-.3686-1.2373-.7199A4.455 4.455 0 0114.8197 15a2.3725 2.3725 0 01-.4943-.8999 3.5997 3.5997 0 01-.0314-1.1486 2.1939 2.1939 0 011.8457-1.7085 4.561 4.561 0 011.366.0398zm-4.2257.7515l.0056.7371h-2.3429v6.6572H9.2858v-6.6572H6.943v-.7228a7.0668 7.0668 0 01.02-.7429c.0085-.0112 1.4341-.0171 3.1628-.0143l3.1457.0086.0085.7343z"/>
</svg>
